<?xml version="1.0" encoding="UTF-8"?>
<svg width="800" height="400" xmlns="http://www.w3.org/2000/svg" style="background: white;">
  <defs>
    <pattern id="grid" width="40" height="40" patternUnits="userSpaceOnUse">
      <path d="M 40 0 L 0 0 0 40" fill="none" stroke="#e0e0e0" stroke-width="0.5"/>
    </pattern>
  </defs>
  <rect width="800" height="400" fill="url(#grid)" />
  <line x1="50.0" y1="50" x2="50.0" y2="350" stroke="black" stroke-width="1"/>
  <line x1="50" y1="200.0" x2="750" y2="200.0" stroke="black" stroke-width="1"/>
  <polyline points="50.0,200.0 52.78521150410817,193.7526038411652 55.57042300821634,187.52082291914647 58.35563451232451,181.3202334408001 61.140846016432675,175.16633365061733 63.926057520540844,169.07450509318463 66.71126902464901,163.05997416733254 69.49648052875717,157.13777406806858 72.28169203286535,151.32270721141867 75.06690353697351,145.62930823609622 77.85211504108167,140.07180767447463 80.63732654518985,134.6640963836676 83.42253804929803,129.41969082562053 86.20774955340619,124.35169928299504 88.99296105751436,119.47278909528859 91.77817256162254,114.79515499708322 94.5633840657307,110.33048863755963 97.34859556983886,106.08994935746338 100.13380707394704,102.08413629656457 102.91901857805522,98.32306190132823 105.70423008216338,94.81612689901294 108.48944158627154,91.57209680074783 111.27465309037973,88.59907999232053 114.05986459448789,85.90450746743483 116.84507609859607,83.49511425409668 119.63028760270423,81.3769225805517 122.4154991068124,79.5552268228509 125.20071061092058,78.03458027166761 127.98592211502876,76.81878375144248 130.77113361913692,75.9108761203014 133.55634512324508,75.31312667449322 136.34155662735327,75.02702947633031 139.12676813146143,75.05329961981187 141.9119796355696,75.39187144326019 144.69719113967778,76.04189869344145 147.48240264378595,77.00175664075795 150.2676141478941,78.26904614022561 153.0528256520023,79.84059962808755 155.83803715611046,81.71248903907326 158.62324866021862,83.88003562451638 161.40846016432678,86.33782164678985 164.19367166843494,89.07970392082814 166.97888317254308,92.0988291688908 169.76409467665127,95.38765115018779 172.5493061807594,98.93794952255121 175.3345176848676,102.74085038900984 178.11972918897573,106.78684847790998 180.9049406930839,111.06583090114444 183.69015219719205,115.5671024311061 186.4753637013002,120.27941223318697 189.26057520540837,125.19098198700536 192.04578670951653,130.28953532607278 194.8309982136247,135.56232852231685 197.61620971773286,140.99618233876453 200.40142122184102,146.5775149707711 203.18663272594918,152.29237599345834 205.97184423005734,158.12648123051167 208.75705573416548,164.0652484571817 211.54226723827364,170.09383384825193 214.3274787423818,176.1971690798713 217.11269024648996,182.35999899251627 219.89790175059812,188.566919720945 222.68311325470629,194.8024171958383 225.46832475881442,201.05090592089317 228.25353626292258,207.29676792844708 231.03874776703074,213.5243918162631 233.8239592711389,219.7182117679056 236.60917077524707,225.8627464591745 239.39438227935523,231.94263775335344 242.1795937834634,237.94268908855315 244.96480528757155,243.84790346120195 247.7500167916797,249.64352091074448 250.53522829578785,255.315055411856 253.320439799896,260.8483310819619 256.10565130400414,266.2295176135611 258.89086280811233,271.44516484279245 261.6760743122205,276.48223636783933 264.46128581632865,281.3281421331454 267.2464973204368,285.9707698979962 270.031708824545,290.39851551081347 272.81692032865317,294.60031191349054 275.6021318327613,298.5656568032739 278.38734333686944,302.28463888305083 281.1725548409776,305.74796263443034 283.95776634508576,308.9469715516981 286.74297784919395,311.87366977857255 289.5281893533021,314.5207420936815 292.3134008574102,316.8815721948058 295.0986123615184,318.9502592361892 297.8838238656266,320.7216325775796 300.66903536973473,322.19126470813694 303.45424687384286,323.3554823129044 306.23945837795105,324.2113754541829 309.0246698820592,324.75680484485986 311.8098813861674,324.9904071955126 314.5950928902755,324.9115986219223 317.3803043943837,324.5205761044802 320.16551589849183,323.8183169958393 322.9507274026,322.8065765780418 325.73593890670816,321.48788367522786 328.52115041081635,319.86553433289265 331.3063619149245,317.94358357948875 334.0915734190326,315.726835290967 336.8767849231408,313.22083018358865 339.66199642724894,310.4318319650198 342.44720793135707,307.36681167832467 345.23241943546526,304.0334302779884 348.0176309395734,300.44001948152027 350.8028424436816,296.5955609444993 353.5880539477897,292.5096638111128 356.37326545189785,288.1925406963 359.15847695600604,283.6549821595338 361.9436884601142,278.90832973404133 364.72889996422236,273.9644475788774 367.5141114683305,268.83569282470603 370.2993229724387,263.53488468740863 373.0845344765468,258.075272426721 375.869745980655,252.47050222998388 378.65495748476314,246.73458310378106 381.44016898887133,240.88185185871913 384.22538049297947,234.92693727486733 387.0105919970876,228.88472353742566 389.7958035011958,222.7703130340136 392.5810150053039,216.59898860656637 395.3662265094121,210.38617535218884 398.15143801352025,204.14740206844638 400.93664951762844,197.89826243945805 403.7218610217366,191.65437605980733 406.50707252584476,185.43134939369017 409.2922840299529,179.2447367668822 412.0774955340611,173.1100014890249 414.8627070381692,167.04247720340453 417.64791854227735,161.05732956082957 420.43313004638554,155.16951831340182 423.2183415504937,149.39375992292705 426.00355305460187,143.7444907774246 428.78876455871,138.23583110767572 431.5739760628182,132.88154969400028 434.3591875669263,127.69502945147673 437.1443990710345,122.68923397962368 439.9296105751426,117.87667516015296 442.71482207925084,113.26938188378105 445.5000335833589,108.87886998426697 448.28524508746716,104.716113454825 451.07045659157524,100.7915170188572 453.8556680956834,97.11489012356307 456.64087959979156,93.69542242143058 459.42609110389975,90.54166080089078 462.2113026080079,87.66148802354769 464.9965141121161,85.06210302137958 467.7817256162242,82.75000290315842 470.5669371203324,80.7309667150613 473.35214862444053,79.01004099606479 476.1373601285487,77.59152716422545 478.92257163265685,76.47897076537532 481.70778313676504,75.67515261110327 484.4929946408732,75.18208182817449 487.27820614498137,75.00099083676014 490.0634176490895,75.13233227002837 492.8486291531977,75.57577784279727 495.6338406573058,76.33021917207691 498.419052161414,77.39377054744949 501.2042636655222,78.7637736443636 503.9894751696304,80.43680416856068 506.7746866737386,82.40868041502762 509.5598981778468,84.67447372008161 512.3451096819549,87.22852078046242 515.1303211860632,90.06443780864095 517.9155326901714,93.17513648896391 520.7007441942797,96.55284169475098 523.4859556983879,100.18911092206264 526.2711672024961,104.07485539156292 529.0563787066043,108.20036276573478 531.8415902107124,112.55532142466538 534.6268017148207,117.12884623972607 537.4120132189289,121.90950578072491 540.1972247230372,126.88535088852873 542.9824362271454,132.04394454173803 545.7676477312535,137.37239294276344 548.5528592353617,142.85737774560474 551.3380707394699,148.48518934477963 554.1232822435782,154.2417611421978 556.9084937476863,160.11270470633033 559.6937052517947,166.08334573579526 562.4789167559028,172.1387607374686 565.264128260011,178.26381432744535 568.0493397641192,184.44319706161681 570.8345512682274,190.66146370130792 573.6197627723355,196.90307181833003 576.4049742764438,203.15242064295734 579.1901857805519,209.39389005772617 581.9753972846603,215.61187963959404 584.7606087887684,221.79084765287269 587.5458202928767,227.91534989547318 590.3310317969848,233.97007830136823 593.116243301093,239.93989920278463 595.9014548052013,245.80989115649146 598.6866663093094,251.5653822396372 601.4718778134177,257.1919867219158 604.2570893175259,262.67564102240044 607.0423008216342,268.00263886117193 609.8275123257423,273.1596655178803 612.6127238298506,278.13383111161113 615.3979353339587,282.9127028188756 618.1831468380669,287.48433594919373 620.9683583421751,291.83730380060035 623.7535698462833,295.96072622044863 626.5387813503916,299.844296800126 629.3239928544998,303.47830863570755 632.1092043586079,306.8536785901613 634.8944158627162,309.96196999645963 637.6796273668243,312.7954137448537 640.4648388709326,315.3469277016016 643.2500503750408,317.61013441061414 646.035261879149,319.57937703377416 648.8204733832572,321.24973349008536 651.6056848873654,322.6170287583119 654.3908963914737,323.67784531235674 657.1761078955818,324.42953166329744 659.9613193996901,324.8702089867272 662.7465309037982,324.99877581883794 665.5317424079064,324.81491080950553 668.3169539120146,324.31907352549837 671.102165416123,323.5125033017993 673.8873769202311,322.397216143914 676.6725884243393,320.9759996889069 679.4577999284475,319.25240623776017 682.2430114325557,317.23074387647165 685.028222936664,314.9160657080831 687.8134344407721,312.3141572225545 690.5986459448803,309.43152183605184 693.3838574489886,306.27536463579395 696.1690689530968,302.85357437108644 698.954280457205,299.17470373555733 701.7394919613132,295.2479479898766 704.5247034654213,291.08312197839354 707.3099149695296,286.69063559713743 710.0951264736377,282.0814677744987 712.8803379777461,277.2671390296258 715.6655494818542,272.259682677127 718.4507609859625,267.0716147500506 721.2359724900706,261.71590271632084 724.0211839941788,256.20593306682105 726.806395498287,250.55547785613825 729.5916070023952,244.77866027959902 732.3768185065035,238.88991937263626 735.1620300106117,232.90397392072043 737.9472415147198,226.83578567006109 740.7324530188281,220.70052193103365 743.5176645229363,214.513517667802 746.3028760270445,208.29023716889475 749.0880875311527,202.04623539453735 " fill="none" stroke="#e74c3c" stroke-width="2.5" stroke-linecap="round" stroke-linejoin="round"/>
  <polyline points="50.0,75.0 52.78521150410817,75.15621745062919 55.57042300821634,75.62447934024675 58.35563451232451,76.40361525799472 61.140846016432675,77.49167776984478 63.926057520540844,78.88594728616937 66.71126902464901,80.58293885929925 69.49648052875717,82.57841089407765 72.28169203286535,84.86737574963934 75.06690353697351,87.44411220591536 77.85211504108167,90.30217976370335 80.63732654518985,93.43443474256173 83.42253804929803,96.83304813629019 86.20774955340619,100.48952518136801 88.99296105751436,104.39472658943896 91.77817256162254,108.53889139077239 94.5633840657307,112.91166133160436 97.34859556983886,117.50210676437723 100.13380707394704,122.298753966167 102.91901857805522,127.28961381701458 105.70423008216338,132.46221176648254 108.48944158627154,137.80361901353413 111.27465309037973,143.30048482180285 114.05986459448789,148.93906988948035 116.84507609859607,154.70528069041583 119.63028760270423,160.58470470059146 122.4154991068124,166.56264642192662 125.20071061092058,172.62416411336983 127.98592211502876,178.75410713746996 130.77113361913692,184.93715382907925 133.55634512324508,191.15784979153722 136.34155662735327,197.40064652461353 139.12676813146143,203.6499402876612 141.9119796355696,209.89011110084184 144.69719113967778,216.10556178694068 147.48240264378595,222.28075695618662 150.2676141478941,228.400261836636 153.0528256520023,234.44878085306422 155.83803715611046,240.41119585793805 158.62324866021862,246.272603918911 161.40846016432678,252.0183545683929 164.19367166843494,257.6340864220892 166.97888317254308,263.10576307498224 169.76409467665127,268.4197081850339 172.5493061807594,273.56263965691824 175.3345176848676,278.5217028403424 178.11972918897573,283.284502659978 180.9049406930839,287.8391345966942 183.69015219719205,292.1742144426556 186.4753637013002,296.27890675591334 189.26057520540837,300.14295194336665 192.04578670951653,303.7566919044027 194.8309982136247,307.11109417111834 197.61620971773286,310.19777448478567 200.40142122184102,313.00901775213254 203.18663272594918,315.53779732905787 205.97184423005734,317.7777925835822 208.75705573416548,319.7234046941362 211.54226723827364,321.36977064369876 214.3274787423818,322.7127753748067 217.11269024648996,323.74906207505563 219.89790175059812,324.4760405673826 222.68311325470629,324.89189378415995 225.46832475881442,324.99558230891773 228.25353626292258,324.78684697434414 231.03874776703074,324.26620951006834 233.8239592711389,323.43497123860817 236.60917077524707,322.29520982274187 239.39438227935523,320.84977407243275 242.1795937834634,319.10227682428825 244.96480528757155,317.05708591134976 247.7500167916797,314.71931324578475 250.53522829578785,312.0948020417686 253.320439799896,309.19011221049254 256.10565130400414,306.01250396380135 258.89086280811233,302.56991966744545 261.6760743122205,298.8709639893025 264.46128581632865,294.924882392189 267.2464973204368,290.74153802501803 270.031708824545,286.331387070064 272.81692032865317,281.7054526079521 275.6021318327613,276.8752970656974 278.38734333686944,271.8529933166593 281.1725548409776,266.651094504645 283.95776634508576,261.2826026675882 286.74297784919395,255.76093623922492 289.5281893533021,250.09989650999773 292.3134008574102,244.31363313101733 295.0986123615184,238.41660874730337 297.8838238656266,232.42356284870425 300.66903536973473,226.34947492884845 303.45424687384286,220.2095270442118 306.23945837795105,214.01906586688284 309.0246698820592,207.79356432587505 311.8098813861674,201.54858293286242 314.5950928902755,195.29973088900402 317.3803043943837,189.06262707007033 320.16551589849183,182.8528609873877 322.9507274026,176.68595382217924 325.73593890670816,170.5773196306948 328.52115041081635,164.54222681709788 331.3063619149245,158.59575997040693 334.0915734190326,152.7527821608786 336.8767849231408,147.02789779007267 339.66199642724894,141.43541608745406 342.44720793135707,135.98931534477106 345.23241943546526,130.70320797760598 348.0176309395734,125.59030650142529 350.8028424436816,120.66339050717178 353.5880539477897,115.93477471894283 356.37326545189785,111.41627821359353 359.15847695600604,107.11919487919974 361.9436884601142,103.05426518621971 364.72889996422236,99.2316493419114 367.5141114683305,95.6609018951059 370.2993229724387,92.35094785481073 373.0845344765468,89.31006038233585 375.869745980655,86.54584011269901 378.65495748476314,84.06519615699614 381.44016898887133,81.87432883322208 384.22538049297947,79.9787141687047 387.0105919970876,78.38309021288819 389.7958035011958,77.09144519467719 392.5810150053039,76.10700755394163 395.3662265094121,75.43223787209797 398.15143801352025,75.06882272193758 400.93664951762844,75.0176704520731 403.7218610217366,75.27890891653931 406.50707252584476,75.85188515522566 409.2922840299529,76.73516702593565 412.0774955340611,77.92654678399663 414.8627070381692,79.42304660047222 417.64791854227735,81.22092600518323 420.43313004638554,83.31569123593533 423.2183415504937,85.70210647058428 426.00355305460187,88.3742069138645 428.78876455871,91.32531370627083 431.5739760628182,94.54805061772899 434.3591875669263,98.0343624843292 437.1443990710345,101.77553534204105 439.9296105751426,105.76221820708554 442.71482207925084,109.98444644852427 445.5000335833589,114.43166669464762 448.28524508746716,119.09276321090783 451.07045659157524,123.9560856834664 453.8556680956834,129.0094783389113 456.64087959979156,134.24031032735996 459.42609110389975,139.63550729300582 462.2113026080079,145.1815840531991 464.9965141121161,150.86467830438028 467.7817256162242,156.67058527061957 470.5669371203324,162.5847932081594 473.35214862444053,168.59251967721576 476.1373601285487,174.67874849037958 478.92257163265685,180.82826724526453 481.70778313676504,187.02570534759096 484.4929946408732,193.25557242966636 487.27820614498137,199.50229706823757 490.0634176490895,205.75026570493955 492.8486291531977,211.9838616720597 495.6338406573058,218.18750422607414 498.419052161414,224.34568749139257 501.2042636655222,230.44301921697155 503.9894751696304,236.464259248926 506.7746866737386,242.39435762297722 509.5598981778468,248.21849218152568 512.3451096819549,253.9221056213256 515.1303211860632,259.49094187916194 517.9155326901714,264.91108176458397 520.7007441942797,270.16897775063245 523.4859556983879,275.25148783560155 526.2711672024961,280.1459083911989 529.0563787066043,284.8400059150004 531.8415902107124,289.32204760783543 534.6268017148207,293.5808306996739 537.4120132189289,297.6057104507178 540.1972247230372,301.3866267577062 542.9824362271454,304.9141292989349 545.7676477312535,308.17940115513846 548.5528592353617,311.1742808471973 551.3380707394699,313.89128273558424 554.1232822435782,316.32361573056573 556.9084937476863,318.46520026638876 559.6937052517947,320.3106834970295 562.4789167559028,321.8554526755204 565.264128260011,323.0956466834154 568.0493397641192,324.0281656815754 570.8345512682274,324.6506788581515 573.6197627723355,324.9616302544008 576.4049742764438,324.9602426537731 579.1901857805519,324.64651952454733 581.9753972846603,324.0212450111626 584.7606087887684,323.08598197426585 587.5458202928767,321.8430680843736 590.3310317969848,320.29560997891366 593.116243301093,318.447475497249 595.9014548052013,316.303284013094 598.6866663093094,313.8683948884857 601.4718778134177,311.1488940781698 604.2570893175259,308.15157891788357 607.0423008216342,304.8839411345561 609.8275123257423,301.35414812089283 612.6127238298506,297.57102252114726 615.3979353339587,293.54402017910513 618.1831468380669,289.2832065033991 620.9683583421751,284.7992313092297 623.7535698462833,280.10330219937316 626.5387813503916,275.2071565510115 629.3239928544998,270.1230321784023 632.1092043586079,264.8636367447163 634.8944158627162,259.4421159994975 637.6796273668243,253.87202092113552 640.4648388709326,248.16727384647686 643.2500503750408,242.3421336722333 646.035261879149,236.41116021516606 648.8204733832572,230.3891778201266 651.6056848873654,224.2912383069147 654.3908963914737,218.1325833485678 657.1761078955818,211.9286063751164 659.9613193996901,205.69481409802532 662.7465309037982,199.44678775149097 665.5317424079064,193.20014414747058 668.3169539120146,186.970496641785 671.102165416123,180.7734161088608 673.8873769202311,174.62439202265315 676.6725884243393,168.5387937410277 679.4577999284475,162.53183209037013 682.2430114325557,156.6185213464421 685.028222936664,150.81364170651057 687.8134344407721,145.13170234655254 690.5986459448803,139.58690515587116 693.3838574489886,134.19310923976846 696.1690689530968,128.96379627900018 698.954280457205,123.91203683259468 701.7394919613132,119.05045766826245 704.5247034654213,114.39121020205292 707.3099149695296,109.9459401261424 710.0951264736377,105.7257583006687 712.8803379777461,101.74121298236747 715.6655494818542,98.0022634594232 718.4507609859625,94.51825515843609 721.2359724900706,91.29789628572212 724.0211839941788,88.34923606133259 726.806395498287,85.6796446001959 729.5916070023952,83.29579449066864 732.3768185065035,81.20364411653924 735.1620300106117,79.40842276417249 737.9472415147198,77.9146175520159 740.7324530188281,76.72596221514118 743.5176645229363,75.84542777285083 746.3028760270445,75.27521510267707 749.0880875311527,75.01674943933432 " fill="none" stroke="#3498db" stroke-width="2.5" stroke-linecap="round" stroke-linejoin="round"/>
  <text x="400.0" y="30" text-anchor="middle" font-size="18" font-weight="bold" fill="black">Senoide vs Cosseno</text>
  <rect x="10" y="50" width="150" height="70" fill="white" stroke="#ccc" stroke-width="1" rx="3"/>
  <line x1="20" y1="65" x2="50" y2="65" stroke="#e74c3c" stroke-width="2.5"/>
  <text x="60" y="70" font-size="12" fill="black">sin(x)</text>
  <line x1="20" y1="90" x2="50" y2="90" stroke="#3498db" stroke-width="2.5"/>
  <text x="60" y="95" font-size="12" fill="black">cos(x)</text>
  <text x="50.0" y="380" text-anchor="middle" font-size="11" fill="black">0</text>
  <text x="225.0" y="380" text-anchor="middle" font-size="11" fill="black">π</text>
  <text x="400.0" y="380" text-anchor="middle" font-size="11" fill="black">2π</text>
  <text x="575.0" y="380" text-anchor="middle" font-size="11" fill="black">3π</text>
  <text x="750.0" y="380" text-anchor="middle" font-size="11" fill="black">4π</text>
  <text x="30" y="80.0" text-anchor="end" font-size="11" fill="black">1</text>
  <text x="30" y="205.0" text-anchor="end" font-size="11" fill="black">0</text>
  <text x="30" y="330.0" text-anchor="end" font-size="11" fill="black">-1</text>
</svg>
